<?xml version="1.0" encoding="UTF-8" standalone="no"?>
<svg
   version="1.1"
   viewBox="0.0 0.0 720.0 540.0"
   fill="none"
   stroke="none"
   stroke-linecap="square"
   stroke-miterlimit="10"
   id="svg17"
   sodipodi:docname="Untitled document.svg"
   inkscape:version="1.2 (dc2aeda, 2022-05-15)"
   xmlns:inkscape="http://www.inkscape.org/namespaces/inkscape"
   xmlns:sodipodi="http://sodipodi.sourceforge.net/DTD/sodipodi-0.dtd"
   xmlns:xlink="http://www.w3.org/1999/xlink"
   xmlns="http://www.w3.org/2000/svg"
   xmlns:svg="http://www.w3.org/2000/svg">
  <defs
     id="defs21">
    <color-profile
       name="ACES-CG-Linear--Academy-Color-Encoding-System-AP1-"
       xlink:href="file:///System/Library/ColorSync/Profiles/ACESCG%20Linear.icc"
       id="color-profile358" />
  </defs>
  <sodipodi:namedview
     id="namedview19"
     pagecolor="#ffffff"
     bordercolor="#000000"
     borderopacity="0.24705882"
     inkscape:showpageshadow="2"
     inkscape:pageopacity="0.0"
     inkscape:pagecheckerboard="true"
     inkscape:deskcolor="#d1d1d1"
     showgrid="false"
     inkscape:zoom="2.0498262"
     inkscape:cx="414.91322"
     inkscape:cy="210.74957"
     inkscape:window-width="1440"
     inkscape:window-height="762"
     inkscape:window-x="0"
     inkscape:window-y="25"
     inkscape:window-maximized="1"
     inkscape:current-layer="g15" />
  <clipPath
     id="p.0">
    <path
       d="m0 0l720.0 0l0 540.0l-720.0 0l0 -540.0z"
       clip-rule="nonzero"
       id="path2" />
  </clipPath>
  <g
     clip-path="url(#p.0)"
     id="g15">
    <path
       fill="#000000"
       fill-opacity="0.0"
       d="m0 0l720.0 0l0 540.0l-720.0 0z"
       fill-rule="evenodd"
       id="path5" />
    <path
       fill="#000000"
       fill-opacity="0.0"
       d="m442.94373 149.53653l60.135223 -44.221565l-5.9295044 40.599983l68.26199 -6.617996l-27.1109 21.790558l71.00867 6.267273l-56.38684 17.825867l64.51367 21.462708l-76.954346 -2.6532898l21.132935 39.28859l-66.64633 -27.73761l-12.489136 40.25688l-43.865417 -36.61241l-33.072754 50.81668l-12.440643 -45.54059l-47.710724 15.172577l14.621796 -28.05783l-89.378815 4.9558716l57.95404 -21.43985l-60.135193 -24.093124l74.75702 -7.6091614l-68.77905 -40.57711l112.15976 30.688255l16.802979 -30.688255z"
       fill-rule="evenodd"
       id="path7" />
    <path
       stroke="#ffffff"
       stroke-width="3.0"
       stroke-linejoin="round"
       stroke-linecap="butt"
       d="m442.94373 149.53653l60.135223 -44.221565l-5.9295044 40.599983l68.26199 -6.617996l-27.1109 21.790558l71.00867 6.267273l-56.38684 17.825867l64.51367 21.462708l-76.954346 -2.6532898l21.132935 39.28859l-66.64633 -27.73761l-12.489136 40.25688l-43.865417 -36.61241l-33.072754 50.81668l-12.440643 -45.54059l-47.710724 15.172577l14.621796 -28.05783l-89.378815 4.9558716l57.95404 -21.43985l-60.135193 -24.093124l74.75702 -7.6091614l-68.77905 -40.57711l112.15976 30.688255l16.802979 -30.688255z"
       fill-rule="evenodd"
       id="path9" />
    <path
       fill="#000000"
       fill-opacity="0.0"
       d="m355.00656 169.07611l175.874 0l0 37.16536l-175.874 0z"
       fill-rule="evenodd"
       id="path11" />
    <path
       fill="#ffffff"
       d="m 352.51718,172.03511 q 0.4901,0 0.79964,0.38238 0.30954,0.38238 0.30954,0.91183 v 16.61875 q 0,0.61768 -0.36112,1.02948 -0.36114,0.38237 -0.87703,0.38237 -0.25796,0 -0.5417,-0.11765 -0.25795,-0.11766 -0.41272,-0.29414 l -9.93106,-14.70686 0.5417,-0.35296 v 14.20682 q 0,0.52945 -0.30955,0.91183 -0.30953,0.35296 -0.79964,0.35296 -0.51589,0 -0.82544,-0.35296 -0.28374,-0.38238 -0.28374,-0.91183 v -16.64816 q 0,-0.61769 0.36113,-1.00007 0.36113,-0.41179 0.87703,-0.41179 0.25795,0 0.56749,0.14707 0.30953,0.11766 0.43851,0.35297 l 9.69891,14.41272 -0.36113,0.38237 v -14.00092 q 0,-0.52945 0.30953,-0.91183 0.33534,-0.38238 0.79965,-0.38238 z m 20.46976,9.67712 q 0,2.08837 -0.59329,3.91202 -0.59328,1.79424 -1.70246,3.14727 -1.10918,1.35303 -2.60529,2.11778 -1.49611,0.73535 -3.30175,0.73535 -1.75407,0 -3.25017,-0.73535 -1.49611,-0.76475 -2.60529,-2.11778 -1.10919,-1.35303 -1.70247,-3.14727 -0.59329,-1.82365 -0.59329,-3.91202 0,-2.11779 0.59329,-3.91203 0.59328,-1.79424 1.70247,-3.14727 1.10918,-1.35303 2.60529,-2.11778 1.4961,-0.76476 3.25017,-0.76476 1.80564,0 3.30175,0.76476 1.49611,0.76475 2.60529,2.11778 1.10918,1.35303 1.70246,3.14727 0.59329,1.79424 0.59329,3.91203 z m -2.60529,0 q 0,-2.05896 -0.72226,-3.67672 -0.69646,-1.61775 -1.96041,-2.55899 -1.26396,-0.94124 -2.91483,-0.94124 -1.59929,0 -2.86325,0.94124 -1.26395,0.94124 -1.96042,2.55899 -0.69646,1.58834 -0.69646,3.67672 0,2.02954 0.69646,3.67671 0.69647,1.61775 1.96042,2.55899 1.26396,0.94124 2.86325,0.94124 1.65087,0 2.91483,-0.94124 1.26395,-0.94124 1.96041,-2.55899 0.72226,-1.64717 0.72226,-3.67671 z m 24.71485,-9.73594 q 0.4643,0 0.87702,0.41179 0.41272,0.38238 0.41272,1.05889 0,0.2059 -0.0516,0.47062 l -4.97842,16.55992 q -0.10318,0.41179 -0.43852,0.6471 -0.30953,0.2059 -0.64487,0.23531 -0.33534,0 -0.67067,-0.20589 -0.33533,-0.23531 -0.5159,-0.67652 l -3.81765,-10.20656 0.20636,0.11766 -3.76606,10.0889 q -0.20636,0.44121 -0.5417,0.67652 -0.30954,0.20589 -0.67067,0.20589 -0.30954,-0.0294 -0.64487,-0.23531 -0.30954,-0.23531 -0.41272,-0.6471 l -4.95263,-16.55992 q -0.0774,-0.26472 -0.0774,-0.47062 0,-0.67651 0.41272,-1.05889 0.43851,-0.41179 0.90282,-0.41179 0.38692,0 0.72226,0.23531 0.33534,0.2353 0.43851,0.67651 l 4.20458,14.23624 h -0.43852 l 3.66289,-10.26539 q 0.18057,-0.41179 0.46431,-0.6471 0.30954,-0.26472 0.69646,-0.23531 0.38693,-0.0294 0.69647,0.23531 0.30953,0.23531 0.43851,0.6471 l 3.48232,9.94184 -0.36113,0.23531 4.17878,-14.148 q 0.10319,-0.44121 0.43852,-0.67651 0.36113,-0.23531 0.74806,-0.23531 z m 14.46597,19.64836 q -1.44452,0 -2.63108,-0.73535 -1.16077,-0.73534 -1.90883,-2.05896 -0.20636,-0.41179 -0.20636,-0.79417 0,-0.55886 0.38692,-0.94124 0.38693,-0.41179 0.77386,-0.41179 0.33533,0 0.61908,0.23531 0.28374,0.2059 0.51589,0.50004 0.49011,0.70592 1.0834,1.0883 0.61907,0.38238 1.36712,0.38238 0.87703,0 1.5735,-0.4412 0.69646,-0.47062 1.10918,-1.26479 0.41272,-0.79417 0.41272,-1.73541 v -12.0008 q 0,-0.58827 0.38692,-1.00007 0.38693,-0.41179 0.90282,-0.41179 0.5417,0 0.87704,0.41179 0.33533,0.4118 0.33533,1.00007 v 12.0008 q 0,1.67658 -0.74805,3.08844 -0.72226,1.41186 -1.98622,2.26485 -1.26395,0.82359 -2.86324,0.82359 z m 21.57346,-19.61895 q 0.54169,0 0.85123,0.41179 0.30954,0.41179 0.30954,1.00007 v 10.47128 q 0,2.20603 -0.85124,3.94144 -0.82544,1.73541 -2.32154,2.73547 -1.47031,0.97066 -3.40493,0.97066 -1.90884,0 -3.40494,-0.97066 -1.47031,-1.00006 -2.34734,-2.73547 -0.85123,-1.73541 -0.85123,-3.94144 v -10.47128 q 0,-0.58828 0.36113,-1.00007 0.36112,-0.41179 0.95441,-0.41179 0.43851,0 0.82544,0.41179 0.38692,0.41179 0.38692,1.00007 v 10.47128 q 0,1.47069 0.56749,2.55899 0.56749,1.08831 1.49611,1.706 0.95441,0.61769 2.01201,0.61769 1.16077,0 2.11518,-0.61769 0.98021,-0.61769 1.57349,-1.706 0.59329,-1.0883 0.59329,-2.55899 v -10.47128 q 0,-0.58828 0.30954,-1.00007 0.30953,-0.41179 0.82544,-0.41179 z m 10.07857,19.61895 q -1.75405,0 -3.12119,-0.52945 -1.34134,-0.55886 -2.57949,-1.82365 -0.25796,-0.23531 -0.38693,-0.52945 -0.12898,-0.32355 -0.12898,-0.67651 0,-0.50004 0.33534,-0.91183 0.33533,-0.4412 0.85123,-0.4412 0.38693,0 0.72226,0.32355 0.90283,0.97065 1.90883,1.47068 1.006,0.47062 2.37314,0.47062 0.95441,0 1.75405,-0.35296 0.82544,-0.35297 1.31555,-0.94124 0.4901,-0.61769 0.4901,-1.44127 0,-0.97066 -0.5159,-1.61776 -0.49011,-0.6471 -1.41872,-1.05889 -0.92862,-0.44121 -2.24416,-0.76476 -1.21237,-0.23531 -2.16678,-0.67651 -0.95441,-0.44121 -1.62508,-1.11772 -0.67068,-0.67652 -1.0318,-1.61776 -0.36113,-0.94124 -0.36113,-2.17661 0,-1.67659 0.77385,-2.88255 0.77384,-1.23537 2.08939,-1.88248 1.34134,-0.67651 3.01801,-0.67651 1.52191,0 2.83745,0.55886 1.34133,0.52945 2.16677,1.44127 0.56749,0.55886 0.56749,1.23538 0,0.50003 -0.36113,0.94124 -0.33533,0.41179 -0.79964,0.41179 -0.33534,0 -0.56749,-0.23531 -0.38693,-0.47062 -1.05759,-0.82358 -0.64487,-0.38238 -1.39293,-0.61769 -0.72226,-0.26473 -1.39293,-0.26473 -1.10918,0 -1.88303,0.35297 -0.77385,0.35296 -1.18657,0.94124 -0.41272,0.58827 -0.41272,1.38244 0,0.94124 0.46431,1.55893 0.4901,0.58827 1.34134,0.97065 0.85123,0.38238 1.93462,0.67652 1.31554,0.32355 2.37314,0.73534 1.05759,0.41179 1.77985,1.05889 0.72226,0.64711 1.10918,1.61776 0.38693,0.97065 0.38693,2.41192 0,1.64717 -0.82544,2.88255 -0.79965,1.23537 -2.16678,1.9413 -1.34134,0.67652 -2.96642,0.67652 z m 14.46407,-0.26473 q -0.59328,0 -0.95441,-0.38237 -0.33534,-0.4118 -0.33534,-1.02948 v -16.53051 h 2.5795 v 16.53051 q 0,0.61768 -0.38693,1.02948 -0.36113,0.38237 -0.90282,0.38237 z m -5.49433,-16.67757 q -0.51589,0 -0.87702,-0.35297 -0.36114,-0.38238 -0.36114,-1.00006 0,-0.55886 0.36114,-0.91183 0.36113,-0.38238 0.87702,-0.38238 h 11.01445 q 0.4901,0 0.85123,0.38238 0.36113,0.38238 0.36113,0.94124 0,0.61769 -0.36113,0.97065 -0.36113,0.35297 -0.85123,0.35297 z m 26.88837,16.9423 q -1.75406,0 -3.12118,-0.52945 -1.34135,-0.55886 -2.57951,-1.82365 -0.25794,-0.23531 -0.38692,-0.52945 -0.12897,-0.32355 -0.12897,-0.67651 0,-0.50004 0.33533,-0.91183 0.33534,-0.4412 0.85124,-0.4412 0.38692,0 0.72225,0.32355 0.90282,0.97065 1.90883,1.47068 1.006,0.47062 2.37314,0.47062 0.95441,0 1.75405,-0.35296 0.82544,-0.35297 1.31554,-0.94124 0.49011,-0.61769 0.49011,-1.44127 0,-0.97066 -0.5159,-1.61776 -0.4901,-0.6471 -1.41872,-1.05889 -0.92862,-0.44121 -2.24416,-0.76476 -1.21236,-0.23531 -2.16678,-0.67651 -0.95441,-0.44121 -1.62508,-1.11772 -0.67067,-0.67652 -1.0318,-1.61776 -0.36112,-0.94124 -0.36112,-2.17661 0,-1.67659 0.77384,-2.88255 0.77385,-1.23537 2.08939,-1.88248 1.34134,-0.67651 3.01801,-0.67651 1.5219,0 2.83745,0.55886 1.34133,0.52945 2.16677,1.44127 0.56749,0.55886 0.56749,1.23538 0,0.50003 -0.36113,0.94124 -0.33533,0.41179 -0.79964,0.41179 -0.33533,0 -0.56749,-0.23531 -0.38692,-0.47062 -1.0576,-0.82358 -0.64487,-0.38238 -1.39292,-0.61769 -0.72226,-0.26473 -1.39293,-0.26473 -1.10918,0 -1.88303,0.35297 -0.77385,0.35296 -1.18657,0.94124 -0.41272,0.58827 -0.41272,1.38244 0,0.94124 0.46431,1.55893 0.49011,0.58827 1.34134,0.97065 0.85123,0.38238 1.93462,0.67652 1.31555,0.32355 2.37314,0.73534 1.05759,0.41179 1.77985,1.05889 0.72226,0.64711 1.10919,1.61776 0.38692,0.97065 0.38692,2.41192 0,1.64717 -0.82544,2.88255 -0.79964,1.23537 -2.16678,1.9413 -1.34133,0.67652 -2.96642,0.67652 z m 1.39293,2.02954 q 0,0.58828 -0.36113,1.00007 -0.36113,0.41179 -0.87703,0.41179 -0.5159,0 -0.85124,-0.41179 -0.33532,-0.41179 -0.33532,-1.00007 v -23.11918 q 0,-0.58827 0.33532,-1.00006 0.36114,-0.4118 0.90283,-0.4118 0.49011,0 0.82544,0.4118 0.36113,0.41179 0.36113,1.00006 z m 14.77361,-12.05962 -0.0773,-0.50003 q 0.87703,0.41179 1.5477,1.14713 0.69646,0.73534 1.05759,1.64717 0.38692,0.91183 0.38692,1.91189 0,1.52951 -0.74805,2.82372 -0.72226,1.26479 -1.98621,2.02954 -1.23816,0.76476 -2.76006,0.76476 -1.5477,0 -2.81165,-0.76476 -1.23816,-0.76475 -1.98622,-2.02954 -0.72225,-1.29421 -0.72225,-2.82372 0,-1.26479 0.4643,-2.17661 0.46431,-0.94124 1.16078,-1.58834 0.69646,-0.64711 1.41873,-1.0589 l -0.15478,0.61769 q -0.61908,-0.29414 -1.18657,-0.82358 -0.56749,-0.55886 -0.92861,-1.38245 -0.36113,-0.82358 -0.36113,-1.91189 0,-1.5001 0.67066,-2.73548 0.69647,-1.23537 1.85724,-1.97071 1.16078,-0.73535 2.5795,-0.73535 1.41872,0 2.5537,0.73535 1.16077,0.73534 1.83144,1.97071 0.67067,1.23538 0.67067,2.73548 0,1.17655 -0.38693,2.00013 -0.38692,0.79417 -0.98021,1.32362 -0.56748,0.52945 -1.10918,0.79417 z m -5.26217,-4.05909 q 0,0.853 0.36113,1.52951 0.36113,0.6471 0.95441,1.02948 0.61908,0.38238 1.36713,0.38238 0.72226,0 1.31554,-0.38238 0.61908,-0.38238 0.95442,-1.02948 0.36113,-0.67651 0.36113,-1.52951 0,-1.29421 -0.74806,-2.11779 -0.74805,-0.82358 -1.88303,-0.82358 -1.18657,0 -1.93462,0.82358 -0.74805,0.82358 -0.74805,2.11779 z m 2.68267,11.35369 q 1.31554,0 2.19258,-0.88241 0.87702,-0.91183 0.87702,-2.23544 0,-0.91183 -0.41272,-1.61776 -0.41271,-0.73534 -1.10918,-1.14713 -0.69647,-0.41179 -1.5477,-0.41179 -0.85123,0 -1.54769,0.41179 -0.69647,0.41179 -1.10919,1.14713 -0.41272,0.70593 -0.41272,1.61776 0,1.32361 0.85123,2.23544 0.87704,0.88241 2.21837,0.88241 z m 13.39307,-17.17761 q 1.34134,0 2.39894,0.61769 1.05759,0.58827 1.75405,1.64717 0.72226,1.02948 1.0834,2.3531 0.38692,1.2942 0.38692,2.70606 0,1.05889 -0.23216,2.47075 -0.20636,1.38244 -0.72226,2.91196 -0.4901,1.5001 -1.34134,2.91195 -0.82543,1.41186 -2.06359,2.52958 -1.23815,1.11773 -2.96642,1.73541 -0.23216,0.0294 -0.46431,0.0294 -0.4901,0 -0.87703,-0.29414 -0.36113,-0.29414 -0.36113,-1.00007 0,-0.52944 0.28374,-0.88241 0.30955,-0.35296 0.79965,-0.52944 1.16077,-0.47062 2.29575,-1.5001 1.16077,-1.0589 1.96042,-2.47076 0.82544,-1.41185 1.13497,-3.05902 l 0.59329,-0.0882 q -0.36113,0.55886 -0.92861,1.17654 -0.5417,0.58828 -1.31555,1.00007 -0.77385,0.41179 -1.77985,0.41179 -1.5735,0 -2.76007,-0.82358 -1.16077,-0.82358 -1.77984,-2.23544 -0.61908,-1.44128 -0.61908,-3.29434 0,-1.70599 0.72225,-3.14727 0.74806,-1.44127 1.98622,-2.29427 1.26395,-0.88241 2.81164,-0.88241 z m 0.0258,2.52958 q -0.90283,0 -1.62509,0.50003 -0.69646,0.50004 -1.10918,1.35304 -0.38692,0.85299 -0.38692,1.9413 0,1.08831 0.36113,1.97072 0.36112,0.853 1.05759,1.35303 0.69646,0.47062 1.65088,0.47062 0.92861,0 1.65087,-0.50003 0.74805,-0.50004 1.13498,-1.38245 0.41272,-0.88241 0.41272,-1.9413 0,-1.0589 -0.41272,-1.88248 -0.38693,-0.853 -1.10918,-1.35303 -0.69647,-0.52945 -1.62508,-0.52945 z m 8.47167,17.08937 q -0.59329,0 -0.92861,-0.38238 -0.30955,-0.38238 -0.30955,-1.08831 v -0.50003 q 0,-0.67651 0.30955,-1.05889 0.33532,-0.38238 0.92861,-0.38238 h 0.28375 q 0.59328,0 0.90282,0.38238 0.30954,0.38238 0.30954,1.05889 v 0.50003 q 0,0.70593 -0.30954,1.08831 -0.30954,0.38238 -0.90282,0.38238 z m 9.67286,-19.61895 q 1.34134,0 2.39893,0.61769 1.05759,0.58827 1.75405,1.64717 0.72227,1.02948 1.08339,2.3531 0.38693,1.2942 0.38693,2.70606 0,1.05889 -0.23216,2.47075 -0.20636,1.38244 -0.72225,2.91196 -0.49011,1.5001 -1.34134,2.91195 -0.82544,1.41186 -2.0636,2.52958 -1.23816,1.11773 -2.96642,1.73541 -0.23215,0.0294 -0.46431,0.0294 -0.4901,0 -0.87702,-0.29414 -0.36113,-0.29414 -0.36113,-1.00007 0,-0.52944 0.28374,-0.88241 0.30954,-0.35296 0.79964,-0.52944 1.16078,-0.47062 2.29575,-1.5001 1.16078,-1.0589 1.96042,-2.47076 0.82544,-1.41185 1.13498,-3.05902 l 0.59328,-0.0882 q -0.36113,0.55886 -0.92862,1.17654 -0.54169,0.58828 -1.31554,1.00007 -0.77385,0.41179 -1.77985,0.41179 -1.57349,0 -2.76006,-0.82358 -1.16077,-0.82358 -1.77985,-2.23544 -0.61908,-1.44128 -0.61908,-3.29434 0,-1.70599 0.72225,-3.14727 0.74806,-1.44127 1.98622,-2.29427 1.26395,-0.88241 2.81165,-0.88241 z m 0.0258,2.52958 q -0.90283,0 -1.62508,0.50003 -0.69647,0.50004 -1.10919,1.35304 -0.38692,0.85299 -0.38692,1.9413 0,1.08831 0.36112,1.97072 0.36113,0.853 1.05759,1.35303 0.69647,0.47062 1.65088,0.47062 0.92863,0 1.65088,-0.50003 0.74806,-0.50004 1.13498,-1.38245 0.41272,-0.88241 0.41272,-1.9413 0,-1.0589 -0.41272,-1.88248 -0.38692,-0.853 -1.10919,-1.35303 -0.69646,-0.52945 -1.62507,-0.52945 z m 13.64477,-2.52958 q 1.34134,0 2.39893,0.61769 1.05759,0.58827 1.75406,1.64717 0.72225,1.02948 1.08339,2.3531 0.38692,1.2942 0.38692,2.70606 0,1.05889 -0.23215,2.47075 -0.20636,1.38244 -0.72226,2.91196 -0.49011,1.5001 -1.34134,2.91195 -0.82544,1.41186 -2.0636,2.52958 -1.23815,1.11773 -2.96641,1.73541 -0.23216,0.0294 -0.46432,0.0294 -0.4901,0 -0.87703,-0.29414 -0.36113,-0.29414 -0.36113,-1.00007 0,-0.52944 0.28375,-0.88241 0.30954,-0.35296 0.79965,-0.52944 1.16077,-0.47062 2.29575,-1.5001 1.16077,-1.0589 1.96041,-2.47076 0.82544,-1.41185 1.13498,-3.05902 l 0.59328,-0.0882 q -0.36112,0.55886 -0.92861,1.17654 -0.5417,0.58828 -1.31554,1.00007 -0.77385,0.41179 -1.77986,0.41179 -1.57349,0 -2.76006,-0.82358 -1.16077,-0.82358 -1.77985,-2.23544 -0.61908,-1.44128 -0.61908,-3.29434 0,-1.70599 0.72226,-3.14727 0.74805,-1.44127 1.98621,-2.29427 1.26395,-0.88241 2.81165,-0.88241 z m 0.0258,2.52958 q -0.90282,0 -1.62509,0.50003 -0.69646,0.50004 -1.10918,1.35304 -0.38692,0.85299 -0.38692,1.9413 0,1.08831 0.36113,1.97072 0.36113,0.853 1.05759,1.35303 0.69646,0.47062 1.65088,0.47062 0.92861,0 1.65088,-0.50003 0.74805,-0.50004 1.13497,-1.38245 0.41272,-0.88241 0.41272,-1.9413 0,-1.0589 -0.41272,-1.88248 -0.38692,-0.853 -1.10918,-1.35303 -0.69646,-0.52945 -1.62508,-0.52945 z"
       fill-rule="nonzero"
       id="path13"
       style="stroke-width:1.76288" />
  </g>
</svg>
